<?xml version="1.0" standalone="no"?>
<!DOCTYPE svg PUBLIC "-//W3C//DTD SVG 20010904//EN"
 "http://www.w3.org/TR/2001/REC-SVG-20010904/DTD/svg10.dtd">
<svg version="1.0" xmlns="http://www.w3.org/2000/svg"
 width="402.000000pt" height="85.000000pt" viewBox="0 0 402.000000 85.000000"
 preserveAspectRatio="xMidYMid meet">

<g transform="translate(0.000000,85.000000) scale(0.100000,-0.100000)"
fill="#000000" stroke="none">
<path d="M430 781 l0 -68 -96 -6 c-158 -9 -240 -60 -297 -185 -19 -40 -22 -65
-22 -167 0 -109 2 -125 27 -177 57 -122 150 -175 287 -164 42 3 123 7 181 9
l105 2 3 413 2 412 -95 0 -95 0 0 -69z m0 -401 c0 -207 2 -204 -101 -204 -101
-1 -142 51 -142 180 -1 141 57 197 211 203 l32 1 0 -180z"/>
<path d="M2232 513 c5 -352 7 -374 51 -437 42 -60 166 -83 297 -55 l50 11 0
85 c0 84 0 85 -22 79 -13 -4 -53 -9 -89 -13 -96 -8 -99 -3 -99 205 l0 164 105
-4 105 -4 0 83 0 83 -105 0 -105 0 0 70 0 70 -96 0 -96 0 4 -337z"/>
<path d="M1000 720 c-108 -19 -189 -81 -236 -183 -27 -57 -29 -71 -29 -177 0
-106 2 -120 28 -172 62 -127 180 -185 356 -175 65 3 117 12 161 28 l65 24 3
87 3 87 -54 -24 c-113 -49 -252 -58 -305 -18 -31 23 -58 60 -67 91 l-6 22 222
0 222 0 -6 98 c-6 122 -27 180 -83 236 -63 64 -172 94 -274 76z m104 -164 c36
-15 66 -50 66 -78 0 -16 -12 -18 -120 -18 -134 0 -140 4 -94 59 23 27 64 47
102 50 7 1 28 -5 46 -13z"/>
<path d="M1756 713 c-4 -4 -63 -6 -132 -5 l-124 3 0 -345 0 -346 90 0 90 0 0
256 0 255 37 16 c50 21 127 13 156 -16 21 -21 22 -31 25 -267 l3 -245 92 3 92
3 0 255 c0 222 -2 261 -18 302 -22 56 -81 113 -134 127 -43 12 -166 15 -177 4z"/>
<path d="M2911 698 c-154 -59 -204 -247 -91 -341 41 -35 79 -51 171 -71 131
-29 163 -53 119 -88 -39 -31 -189 -18 -302 27 l-38 15 0 -84 c0 -55 4 -87 13
-94 30 -25 152 -52 231 -52 196 0 301 83 301 235 0 113 -62 170 -223 205 -49
11 -102 24 -116 30 -31 11 -35 45 -7 60 43 23 199 5 304 -35 15 -6 17 1 17 73
0 51 -4 83 -12 90 -7 6 -41 20 -75 31 -85 29 -217 28 -292 -1z"/>
<path d="M3434 696 c-3 -9 -4 -127 -2 -263 3 -226 5 -252 25 -293 37 -81 87
-117 180 -129 30 -5 78 -4 106 2 29 5 103 8 165 7 l112 -2 0 346 0 346 -90 0
-90 0 0 -254 c0 -292 5 -278 -94 -284 -55 -4 -66 -1 -92 21 l-29 25 -5 244 -5
243 -88 3 c-71 2 -88 0 -93 -12z"/>
</g>
</svg>
